<svg xmlns="http://www.w3.org/2000/svg" xmlns:xlink="http://www.w3.org/1999/xlink" viewBox="165 150 200 170"><g id="_0gFEjksrEAZdM5KeXGISt" transform="matrix(1.1956732273101807, 0, 0, 1.1956732273101807, 127.6293758496904, -18.985799429033307)"><path id="_X3OzmHoQ-9ccEKzel9FOW" fill="rgba(255,141,141,1)" transform="matrix(0.45558348298072815, 0, 0, 0.45558348298072815, 31.87849998474121, 186.6050262451172)" data-type="polygon" d="M228.691 184.136L284.794 175.695L284.794 122.604L228.691 114.163Z"/><path id="_u-xnq2QEJpfb6dEvNtW0g" fill="rgba(255,141,141,1)" d="M210.903 152.251v32.587c0 1.955 1.345 3.675 3.298 3.675h3.541c1.954 0 3.424-1.72 3.424-3.675v-71.379  c0-1.953-1.47-3.627-3.424-3.627h-3.541c-1.953 0-3.298 1.674-3.298 3.627v32.635" transform="matrix(0.45558348298072815, 0, 0, 0.45558348298072815, 31.915010452270508, 186.89529418945312)"/><path id="_u64z8kPmUftxJ3CTXGPWX" fill="rgba(102,8,8,1)" d="M164.378 146.094v-25.555c0-1.954-1.312-3.865-3.268-3.865h-3.54c-1.954 0-3.454 1.911-3.454 3.865v57.221  c0 1.955 1.5 3.227 3.454 3.227h3.54c1.955 0 3.268-1.271 3.268-3.227v-25.509" transform="matrix(0.45558348298072815, 0, 0, 0.45558348298072815, 31.9151668548584, 186.8114013671875)"/><path id="_kzCa3-vcZk_wvw9zPug0c" fill="rgba(160,23,23,1)" d="M183.537 145.905V118.18c0-1.954-1.595-3.559-3.549-3.559h-3.539c-1.955 0-3.859 1.604-3.859 3.559v27.726  v6.489v27.725c0 1.954 1.904 3.604 3.859 3.604h3.539c1.954 0 3.549-1.649 3.549-3.604v-27.725V145.905z" transform="matrix(0.45558348298072815, 0, 0, 0.45558348298072815, 32.070945739746094, 186.7635955810547)"/><path id="_DkG7Nk7YFjvDK92uxEYIp" fill="rgba(215,76,76,1)" d="M191.747 146.094V115.82c0-1.955 1.623-3.252 3.578-3.252h3.54c1.953 0 3.828 1.297 3.828 3.252v30.085  v6.489v30.084c0 1.955-1.875 3.297-3.828 3.297h-3.54c-1.955 0-3.578-1.342-3.578-3.297v-30.228" transform="matrix(0.45558348298072815, 0, 0, 0.45558348298072815, 32.07065200805664, 186.7870330810547)"/><path id="_folw7f-H-JQAHTUaW3WeI" fill="rgba(226,12,12,1)" d="M315.85 38.834c-1.299-2.672-3.109-4.388-4.872-5.906c-3.588-2.953-7.356-4.976-11.097-6.826  c-3.75-1.818-7.501-3.362-11.217-4.764c-7.436-2.788-14.726-5.02-21.763-6.97c-14.081-3.874-27.154-6.609-38.791-8.692  c-11.641-2.071-21.855-3.442-30.291-4.306c-8.436-0.869-15.092-1.215-19.628-1.32c-4.538-0.105-6.956-0.016-6.956-0.016  s2.42 0.021 6.941 0.331c4.519 0.31 11.135 0.956 19.493 2.202c8.357 1.242 18.458 3.067 29.929 5.649  c11.464 2.593 24.322 5.901 38.04 10.353c6.85 2.236 13.921 4.76 21.006 7.791c3.537 1.52 7.077 3.171 10.516 5.037  c3.41 1.869 6.812 3.958 9.536 6.436c1.334 1.219 2.49 2.606 2.955 3.785c0.236 0.586 0.288 1.049 0.237 1.423  c-0.054 0.375-0.212 0.762-0.562 1.247c-0.703 0.973-2.141 2.04-3.765 2.911c-1.643 0.882-3.494 1.64-5.419 2.307  c-3.864 1.332-8.023 2.332-12.269 3.178c-4.251 0.845-8.613 1.521-13.035 2.108c-17.719 2.29-36.347 3.239-55.263 3.797  c-18.932 0.525-38.205 0.551-57.482 0.316c-4.82-0.076-9.64-0.153-14.456-0.229l-7.222-0.15c-2.441-0.072-4.881-0.145-7.319-0.217  c-9.79-0.25-19.577-0.216-29.321 0.188c-9.744 0.405-19.445 1.17-29.059 2.455c-9.613 1.283-19.14 3.07-28.531 5.707  c-9.382 2.697-18.665 6.05-27.653 11.809c-2.242 1.459-4.461 3.088-6.619 5.016c-2.152 1.926-4.257 4.116-6.153 6.787  c-1.888 2.643-3.585 5.795-4.634 9.422c-1.081 3.601-1.396 7.661-0.898 11.479c0.507 3.823 1.763 7.315 3.32 10.284  c1.57 2.953 3.406 5.479 5.309 7.631c3.824 4.317 7.868 7.445 11.839 10.099c7.974 5.25 15.793 8.624 23.295 11.436  c7.507 2.77 14.718 4.84 21.578 6.533c6.86 1.689 13.371 2.99 19.487 4.056c12.234 2.114 22.891 3.295 31.658 4.099  c0.045 0.004 0.087 0.008 0.133 0.012l-0.133 2.918c8.775 0.929 15.627 1.383 20.353 1.661c4.629 0.241 7.098 0.369 7.098 0.369  l0.069-21.731l0.069-18.5c0 0-0.01 0-0.01 0l0.01-3.231c0 0-2.367 0.09-6.805 0.258c-4.339 0.136-10.787 0.288-18.914 0.162  l-0.145 3.166c-8.102-0.121-17.906-0.462-28.972-1.511c-5.561-0.534-11.438-1.249-17.522-2.261  c-6.081-1.011-12.379-2.319-18.65-4.098c-6.236-1.777-12.558-4.052-17.916-7.022c-2.664-1.465-5.058-3.132-6.746-4.729  c-0.859-0.793-1.474-1.55-1.922-2.163c-0.424-0.616-0.628-1.047-0.763-1.336c-0.099-0.293-0.206-0.498-0.16-0.959  c0.012-0.226 0.068-0.51 0.195-0.855c0.111-0.341 0.288-0.739 0.542-1.178c0.973-1.77 3.073-4.025 5.754-6.068  c2.684-2.071 5.918-4.018 9.411-5.785c3.511-1.758 7.278-3.369 11.221-4.806c7.886-2.888 16.383-5.192 25.161-7.052  c8.783-1.868 17.863-3.295 27.099-4.39c9.238-1.094 18.636-1.851 28.112-2.333c2.379-0.119 4.72-0.237 7.144-0.298l7.262-0.179  c4.847-0.143 9.698-0.286 14.549-0.429c19.405-0.644 38.813-1.549 57.916-2.948c19.101-1.434 37.901-3.239 56.047-6.422  c4.536-0.812 9.029-1.718 13.472-2.812c4.441-1.1 8.834-2.355 13.154-4.065c2.159-0.864 4.302-1.84 6.408-3.098  c2.081-1.292 4.236-2.785 5.965-5.35c0.842-1.278 1.505-2.928 1.604-4.675C316.919 41.821 316.479 40.163 315.85 38.834z" transform="matrix(0.45558348298072815, 0, 0, 0.45558348298072815, 32.04454803466797, 186.80259704589844)"/></g><path id="_swp2L_10qX5ZzTmW5XXqm" fill="#ff8d8d" transform="matrix(0.48052772879600525, 0, 0, 0.48052772879600525, 330.73487702461716, 301.5619529513378)" text="F" text-anchor="middle" font-size="100" letter-spacing="0" side="left" offset="0.5" dx="0" dy="0" space="preserve" href="" font-family="Lilita One" font-scale="contain" x="0" y="0" data-fl-textpath="" d="M-16.5-70L 18.8-70Q 20.5-70  20.5-61.15Q 20.5-52.3  18.8-52.3L 18.8-52.3L 0.5-52.3L 0.5-40.9L 12.7-40.9Q 14.4-40.9  14.4-33.15Q 14.4-25.4  12.8-25.4L 12.8-25.4L 0.5-25.4L 0.5-1.3Q 0.5 0.1 -3.25 0.55Q-7 1 -9.5 1L-9.5 1L-14.2 0.8Q-19.1 0.2 -19.1-1.2L-19.1-1.2L-19.1-67.4Q-19.1-69 -18.45-69.5Q-17.8-70 -16.5-70L-16.5-70Z" font-style="normal" font-weight="400"/><path id="_NUJlyI8SlisPSusFMS1L4" fill="#013f06" transform="matrix(0.2201821446026505, 0, 0, 0.2201821446026505, 337.9102851673816, 307.6315939093891)" text="E" text-anchor="middle" font-size="100" letter-spacing="0" side="left" offset="0.5" dx="0" dy="0" space="preserve" href="" font-family="Montserrat Subrayada" font-scale="contain" x="0" y="0" data-fl-textpath="" d="M-32.7-4.3L-23-4.3L-23-69.9L 26.1-69.9L 26.1-58.8L-11.2-58.8L-11.2-40.3L 22.3-40.3L 22.3-29.8L-11.2-29.8L-11.2-11.1L 27.3-11.1L 27.3-4.3L 37-4.3L 37 0L-32.7 0L-32.7-4.3Z"/></svg>